<?xml version="1.0" encoding="utf-8"?>
<!-- Generator: Adobe Illustrator 15.0.0, SVG Export Plug-In . SVG Version: 6.00 Build 0)  -->
<!DOCTYPE svg PUBLIC "-//W3C//DTD SVG 1.1//EN" "http://www.w3.org/Graphics/SVG/1.1/DTD/svg11.dtd">
<svg version="1.1" id="Calque_1" xmlns="http://www.w3.org/2000/svg" xmlns:xlink="http://www.w3.org/1999/xlink" x="0px" y="0px"
	 width="2500px" height="2500px" viewBox="0 0 2500 2500" enable-background="new 0 0 2500 2500" xml:space="preserve">
<title>behance</title>
<g>
	<path fill="#843A3A" d="M1000.6,1349.2c-32.8-24.899-76.2-37.3-130.101-37.3h-271.3v311l266.5-0.1c23.5,0.1,46.9-2.301,69.8-7.101
		c22.2-4.8,41.801-12.699,58.7-23.8c16.9-11.1,30.4-26.2,40.5-45.2c10-19,15.101-43.399,15.101-73
		C1049.8,1415.6,1033.4,1374.001,1000.6,1349.2z"/>
	<path fill="#843A3A" d="M1743.999,1123.1c-36,0-65.899,6.1-89.6,18.2c-23.8,12.199-42.8,27.199-57.1,45.199
		c-14.301,18-24.301,37-30.101,57.101c-5.8,20.1-9.3,38.1-10.3,53.899h366.5c-10.7-57-29.5-100.399-56.4-130
		C1839.999,1137.9,1798.999,1123.1,1743.999,1123.1z"/>
	<path fill="#843A3A" d="M960.9,1110.4c28.6-21.2,42.9-55.5,42.8-103.1c0-26.4-4.8-48.101-14.3-65c-9.5-16.9-22.2-30.2-38.1-39.7
		c-15.9-9.5-34.101-16.1-54.7-19.8c-21.2-3.7-42.7-5.601-64.3-5.5H599.199v265l252.2-0.2C895.8,1142.1,932.3,1131.5,960.9,1110.4z"
		/>
	<path fill="#843A3A" d="M1250,0C559.644,0,0,559.644,0,1250c0,690.356,559.644,1250,1250,1250c690.355,0,1250-559.644,1250-1250
		C2500,559.644,1940.356,0,1250,0z M1518.299,741.1h457.9v127h-457.9V741.1z M1265.6,1636.5c-22.2,41.801-52.101,75.9-89.7,102.301
		c-37.6,26.5-80.4,46-128.5,58.699c-48.4,12.7-98.3,19.101-148.3,19H350V683.6h533.1c53.9,0,103.1,4.8,147.6,14.3
		s82.5,25.1,114.2,46.8s56.3,50.5,73.8,86.5s26.2,80.4,26.2,133.3c0,57.101-13,104.7-38.9,142.801c-25.899,38.1-64.3,69.3-115,93.6
		c69.801,20.1,121.9,55.3,156.301,105.5c34.399,50.2,51.6,110.8,51.6,181.7C1298.9,1545.2,1287.8,1594.7,1265.6,1636.5z
		 M1612.299,1599L1612.299,1599c33.801,32.801,82.501,49.2,146.001,49.2c45.5,0,84.6-11.399,117.399-34.1
		c32.801-22.7,52.9-46.8,60.301-72.2h198.3c-31.7,98.4-80.4,168.7-146,211c-65.601,42.3-144.9,63.5-238,63.5
		c-64.5,0-122.7-10.3-174.5-30.9c-51.8-20.6-95.7-50-131.7-88.1s-63.8-83.5-83.3-136.4c-19.5-52.899-29.3-111.1-29.3-174.5
		c0-61.3,10-118.399,30.1-171.3c20.1-52.899,48.7-98.6,85.7-137.2c37-38.6,81.199-69,132.5-91.199
		c51.3-22.2,108.199-33.301,170.6-33.301c69.8,0,130.6,13.5,182.5,40.5c51.8,27,94.4,63.2,127.7,108.7s57.399,97.3,72.199,155.5
		c14.801,58.2,20.101,119,15.9,182.5h-591.8C1559.999,1513.4,1578.499,1566.301,1612.299,1599z"/>
</g>
</svg>
